HIERARCHY
ROOT hip
{
  OFFSET 0.00112043 5.09927 -9.65472
  CHANNELS 6 Xposition Yposition Zposition Zrotation Xrotation Yrotation
  JOINT abdomen
  {
    OFFSET 0 -1.186 -1.5018
    CHANNELS 3 Zrotation Xrotation Yrotation
    JOINT abdomen2
    {
      OFFSET 0 9.964 0.2134
      CHANNELS 3 Zrotation Xrotation Yrotation
      JOINT chest
      {
        OFFSET 0 13.134 -3.2573
        CHANNELS 3 Zrotation Xrotation Yrotation
        JOINT neck
        {
          OFFSET 0 20.686 -1.6905
          CHANNELS 3 Zrotation Xrotation Yrotation
          JOINT head
          {
            OFFSET 0 7.238 -0.1237
            CHANNELS 3 Zrotation Xrotation Yrotation
            End Site
            {
              OFFSET 0 0 0
            }
          }
        }
        JOINT lCollar
        {
          OFFSET 1.7069 20.075 5.0056
          CHANNELS 3 Zrotation Xrotation Yrotation
          JOINT lShldr
          {
            OFFSET 13.6458 -0.047 -4.849
            CHANNELS 3 Zrotation Xrotation Yrotation
            JOINT lForeArm
            {
              OFFSET 28.3255 -0.9759 2.2888
              CHANNELS 3 Zrotation Xrotation Yrotation
              JOINT lHand
              {
                OFFSET 22.1583 -0.53 10.8316
                CHANNELS 3 Zrotation Xrotation Yrotation
                JOINT lThumb1
                {
                  OFFSET 0.786 0.112 2.5817
                  CHANNELS 3 Zrotation Xrotation Yrotation
                  JOINT lThumb2
                  {
                    OFFSET 0.3601 -0.878 4.2331
                    CHANNELS 3 Zrotation Xrotation Yrotation
                    JOINT lThumb2_End
                    {
                      OFFSET 1.8127 -1.216 2.2227
                      CHANNELS 3 Zrotation Xrotation Yrotation
                      End Site
                      {
                        OFFSET 0.0181 -0.0122 0.0222
                      }
                    }
                  }
                }
                JOINT lCarpal1
                {
                  OFFSET 0.9571 1.114 1.7695
                  CHANNELS 3 Zrotation Xrotation Yrotation
                  JOINT lIndex1
                  {
                    OFFSET 4.1246 0.487 4.1451
                    CHANNELS 3 Zrotation Xrotation Yrotation
                    JOINT lIndex2
                    {
                      OFFSET 3.4052 -1.454 2.7682
                      CHANNELS 3 Zrotation Xrotation Yrotation
                      JOINT lIndex2_End
                      {
                        OFFSET 1.4531 -1.795 1.2713
                        CHANNELS 3 Zrotation Xrotation Yrotation
                        End Site
                        {
                          OFFSET 0.0145 -0.0179 0.0127
                        }
                      }
                    }
                  }
                  JOINT lMid1
                  {
                    OFFSET 5.6954 0.21 2.1184
                    CHANNELS 3 Zrotation Xrotation Yrotation
                    JOINT lMid2
                    {
                      OFFSET 3.9766 -1.54 2.3863
                      CHANNELS 3 Zrotation Xrotation Yrotation
                      JOINT lMid2_End
                      {
                        OFFSET 1.4042 -1.926 1.125
                        CHANNELS 3 Zrotation Xrotation Yrotation
                        End Site
                        {
                          OFFSET 0.014 -0.0193 0.0113
                        }
                      }
                    }
                  }
                }
                JOINT lCarpal2
                {
                  OFFSET 2.0956 0.66 -0.3894
                  CHANNELS 3 Zrotation Xrotation Yrotation
                  JOINT lRing1
                  {
                    OFFSET 5.0395 -0.09 2.4971
                    CHANNELS 3 Zrotation Xrotation Yrotation
                    JOINT lRing2
                    {
                      OFFSET 3.7921 -1.552 1.4806
                      CHANNELS 3 Zrotation Xrotation Yrotation
                      JOINT lRing2_End
                      {
                        OFFSET 1.4655 -1.808 0.9609
                        CHANNELS 3 Zrotation Xrotation Yrotation
                        End Site
                        {
                          OFFSET 0.0147 -0.0181 0.0096
                        }
                      }
                    }
                  }
                  JOINT lPinky1
                  {
                    OFFSET 4.9141 -1.269 0.3591
                    CHANNELS 3 Zrotation Xrotation Yrotation
                    JOINT lPinky2
                    {
                      OFFSET 3.1477 -1.685 0.8462
                      CHANNELS 3 Zrotation Xrotation Yrotation
                      JOINT lPinky2_End
                      {
                        OFFSET 0.8055 -1.585 0.7955
                        CHANNELS 3 Zrotation Xrotation Yrotation
                        End Site
                        {
                          OFFSET 0.0081 -0.0158 0.008
                        }
                      }
                    }
                  }
                }
              }
            }
          }
        }
        JOINT rCollar
        {
          OFFSET -1.7069 20.075 5.0056
          CHANNELS 3 Zrotation Xrotation Yrotation
          JOINT rShldr
          {
            OFFSET -13.6458 -0.047 -4.849
            CHANNELS 3 Zrotation Xrotation Yrotation
            JOINT rForeArm
            {
              OFFSET -28.3255 -0.9759 2.2888
              CHANNELS 3 Zrotation Xrotation Yrotation
              JOINT rHand
              {
                OFFSET -22.1583 -0.53 10.8316
                CHANNELS 3 Zrotation Xrotation Yrotation
                JOINT rThumb1
                {
                  OFFSET -0.786 0.112 2.5817
                  CHANNELS 3 Zrotation Xrotation Yrotation
                  JOINT rThumb2
                  {
                    OFFSET -0.3601 -0.878 4.2331
                    CHANNELS 3 Zrotation Xrotation Yrotation
                    JOINT rThumb2_End
                    {
                      OFFSET -1.8127 -1.216 2.2227
                      CHANNELS 3 Zrotation Xrotation Yrotation
                      End Site
                      {
                        OFFSET -0.0181 -0.0122 0.0222
                      }
                    }
                  }
                }
                JOINT rCarpal1
                {
                  OFFSET -0.9571 1.114 1.7695
                  CHANNELS 3 Zrotation Xrotation Yrotation
                  JOINT rIndex1
                  {
                    OFFSET -4.1246 0.487 4.1451
                    CHANNELS 3 Zrotation Xrotation Yrotation
                    JOINT rIndex2
                    {
                      OFFSET -3.4052 -1.454 2.7682
                      CHANNELS 3 Zrotation Xrotation Yrotation
                      JOINT rIndex2_End
                      {
                        OFFSET -1.4531 -1.795 1.2713
                        CHANNELS 3 Zrotation Xrotation Yrotation
                        End Site
                        {
                          OFFSET -0.0145 -0.018 0.0127
                        }
                      }
                    }
                  }
                  JOINT rMid1
                  {
                    OFFSET -5.6954 0.21 2.1184
                    CHANNELS 3 Zrotation Xrotation Yrotation
                    JOINT rMid2
                    {
                      OFFSET -3.9766 -1.54 2.3863
                      CHANNELS 3 Zrotation Xrotation Yrotation
                      JOINT rMid2_End
                      {
                        OFFSET -1.4042 -1.926 1.125
                        CHANNELS 3 Zrotation Xrotation Yrotation
                        End Site
                        {
                          OFFSET -0.014 -0.0193 0.0113
                        }
                      }
                    }
                  }
                }
                JOINT rCarpal2
                {
                  OFFSET -2.0956 0.66 -0.3894
                  CHANNELS 3 Zrotation Xrotation Yrotation
                  JOINT rRing1
                  {
                    OFFSET -5.0395 -0.09 2.4971
                    CHANNELS 3 Zrotation Xrotation Yrotation
                    JOINT rRing2
                    {
                      OFFSET -3.7921 -1.552 1.4806
                      CHANNELS 3 Zrotation Xrotation Yrotation
                      JOINT rRing2_End
                      {
                        OFFSET -1.4655 -1.808 0.9609
                        CHANNELS 3 Zrotation Xrotation Yrotation
                        End Site
                        {
                          OFFSET -0.0147 -0.0181 0.0096
                        }
                      }
                    }
                  }
                  JOINT rPinky1
                  {
                    OFFSET -4.9141 -1.269 0.3592
                    CHANNELS 3 Zrotation Xrotation Yrotation
                    JOINT rPinky2
                    {
                      OFFSET -3.1477 -1.685 0.8462
                      CHANNELS 3 Zrotation Xrotation Yrotation
                      JOINT rPinky2_End
                      {
                        OFFSET -0.8055 -1.585 0.7955
                        CHANNELS 3 Zrotation Xrotation Yrotation
                        End Site
                        {
                          OFFSET -0.0081 -0.0158 0.008
                        }
                      }
                    }
                  }
                }
              }
            }
          }
        }
      }
    }
  }
  JOINT lThigh
  {
    OFFSET 8.367 -8.2066 0.5982
    CHANNELS 3 Zrotation Xrotation Yrotation
    JOINT lShin
    {
      OFFSET 2.1923 -43.463 -0.4932
      CHANNELS 3 Zrotation Xrotation Yrotation
      JOINT lFoot
      {
        OFFSET 0.7333 -45.8593 -2.6451
        CHANNELS 3 Zrotation Xrotation Yrotation
        End Site
        {
          OFFSET 2.6618 -4.2699 12.3931
        }
      }
    }
  }
  JOINT rThigh
  {
    OFFSET -8.367 -8.2066 0.5982
    CHANNELS 3 Zrotation Xrotation Yrotation
    JOINT rShin
    {
      OFFSET -2.1923 -43.463 -0.4931
      CHANNELS 3 Zrotation Xrotation Yrotation
      JOINT rFoot
      {
        OFFSET -0.7333 -45.8593 -2.6451
        CHANNELS 3 Zrotation Xrotation Yrotation
        End Site
        {
          OFFSET -2.6618 -4.2699 12.3931
        }
      }
    }
  }
}
MOTION
Frames:	4
Frame Time:	0.0333333
0.941293 71.1521 9.07108 -154.458 73.5856 -27.1847 -0.412008 13.8648 -0.599265 -0.701664 27.7329 -1.14501 -0.701664 27.733 -1.14501 0.000103955 -29.5305 5.56022e-005 0.320072 -0.568275 0.00857155 -28.3494 -19.78 9.30878 -43.4155 21.9704 -17.0274 -12.1246 26.6364 -66.0518 21.4547 -8.14711 -1.59922 1.25053e-006 2.41767e-006 -1.8637e-006 -1.25053e-006 -2.41767e-006 1.8637e-006 1.25053e-006 2.41767e-006 -1.8637e-006 5.96354e-016 7.95139e-016 -0 1.25053e-006 2.41767e-006 -1.8637e-006 -1.25053e-006 -2.41767e-006 1.8637e-006 1.25053e-006 2.41767e-006 -1.8637e-006 1.25053e-006 2.41767e-006 -1.8637e-006 -1.25053e-006 -2.41767e-006 1.8637e-006 1.25053e-006 2.41767e-006 -1.8637e-006 5.96354e-016 7.95139e-016 -0 1.25053e-006 2.41767e-006 -1.8637e-006 -1.25053e-006 -2.41767e-006 1.8637e-006 1.25053e-006 2.41767e-006 -1.8637e-006 1.25053e-006 2.41767e-006 -1.8637e-006 -1.25053e-006 -2.41767e-006 1.8637e-006 1.25053e-006 2.41767e-006 -1.8637e-006 1.22177 -12.6131 8.98459 39.3755 -14.7715 60.3398 7.38978 -12.2759 -11.4119 33.0344 22.4984 8.68149 -3.49764e-006 -4.15377e-007 1.30723e-006 -6.1296e-006 -2.14673e-006 2.08063e-006 -3.49764e-006 -4.15377e-007 1.30723e-006 2.78299e-015 1.67973e-014 3.18055e-015 -3.49764e-006 -4.15377e-007 1.30723e-006 -6.1296e-006 -2.14673e-006 2.08063e-006 -3.49764e-006 -4.15377e-007 1.30723e-006 -3.49764e-006 -4.15377e-007 1.30723e-006 -6.1296e-006 -2.14673e-006 2.08063e-006 -3.49764e-006 -4.15377e-007 1.30723e-006 2.78299e-015 1.67973e-014 3.18055e-015 -3.49764e-006 -4.15377e-007 1.30723e-006 -6.1296e-006 -2.14673e-006 2.08063e-006 -3.49764e-006 -4.15377e-007 1.30723e-006 -3.49764e-006 -4.15377e-007 1.30723e-006 -6.1296e-006 -2.14673e-006 2.08063e-006 -3.49764e-006 -4.15377e-007 1.30723e-006 108.563 -53.9302 124.575 162.297 74.6716 -160.129 5.23208 -4.44533 8.62911 -107.642 -49.8262 -121.046 -163.878 70.5732 161.238 -2.35671 -7.4059 -3.92216 
0.61334 78.2452 9.34184 -11.5927 66.2276 -169.444 -0.413663 14.0643 -0.5965 -0.704279 28.1321 -1.13863 -0.704278 28.1321 -1.13863 -2.1439e-005 -29.2527 -1.12443e-005 0.320072 -0.568279 0.00857346 -28.3022 -20.0201 9.19697 -43.4155 21.9704 -17.0274 -12.1991 26.6591 -66.6959 21.443 -7.63153 -1.81389 -3.96925e-006 3.43747e-006 3.37093e-006 -2.8018e-034 -3.23025e-016 -4.96962e-017 -1.17675e-032 -1.93815e-015 -3.47873e-016 -3.50009e-032 2.88238e-015 6.95746e-016 -3.96925e-006 3.43747e-006 3.37093e-006 1.59028e-015 -3.10601e-016 -4.96962e-016 -9.69852e-034 -3.72721e-016 -1.49089e-016 -3.96925e-006 3.43747e-006 3.37093e-006 1.59028e-015 -3.10601e-016 -4.96962e-016 -9.69852e-034 -3.72721e-016 -1.49089e-016 -3.50009e-032 2.88238e-015 6.95746e-016 -3.96925e-006 3.43747e-006 3.37093e-006 1.59028e-015 -3.10601e-016 -4.96962e-016 -9.69852e-034 -3.72721e-016 -1.49089e-016 -3.96925e-006 3.43747e-006 3.37093e-006 1.59028e-015 -3.10601e-016 -4.96962e-016 -9.69852e-034 -3.72721e-016 -1.49089e-016 1.09583 -12.9723 9.1308 39.334 -14.8597 60.2635 7.3898 -12.2759 -11.4119 32.8939 22.4004 8.99772 4.17922e-006 2.41132e-007 3.68288e-006 1.1124e-006 1.02566e-006 -7.66707e-007 -2.30968e-007 1.62656e-006 -7.39197e-007 -9.54166e-015 -1.98785e-015 4.77083e-015 4.17922e-006 2.41132e-007 3.68288e-006 1.1124e-006 1.02566e-006 -7.66707e-007 -2.30968e-007 1.62656e-006 -7.39197e-007 4.17922e-006 2.41132e-007 3.68288e-006 1.1124e-006 1.02566e-006 -7.66707e-007 -2.30968e-007 1.62656e-006 -7.39197e-007 -9.54166e-015 -1.98785e-015 4.77083e-015 4.17922e-006 2.41132e-007 3.68288e-006 1.1124e-006 1.02566e-006 -7.66707e-007 -2.30968e-007 1.62656e-006 -7.39197e-007 4.17922e-006 2.41132e-007 3.68288e-006 1.1124e-006 1.02566e-006 -7.66707e-007 -2.30968e-007 1.62656e-006 -7.39197e-007 105.734 -54.2618 121.713 161.737 75.1856 -159.815 4.96985 -5.25525 8.38858 -104.759 -50.0109 -118.171 -163.384 71.2009 161.065 -2.06745 -8.25734 -3.56095 
0.370826 81.3043 7.75257 -4.74082 48.8463 -175.993 -0.415317 14.264 -0.593712 -0.706942 28.5313 -1.13217 -0.706942 28.5313 -1.13217 -2.27651e-007 -28.9783 7.13681e-007 0.320072 -0.568275 0.00857697 -28.2555 -20.2602 9.08521 -43.4155 21.9704 -17.0274 -12.2733 26.6826 -67.3399 21.4333 -7.11595 -2.02815 -7.42071e-006 1.52146e-006 5.88855e-007 -1.59028e-015 -2.38542e-015 3.18055e-015 -2.51683e-007 9.38865e-007 -1.07926e-007 -8.82781e-032 1.59028e-015 3.18055e-015 -7.42071e-006 1.52146e-006 5.88855e-007 3.18055e-015 -3.97569e-015 -0 -2.51683e-007 9.38865e-007 -1.07926e-007 -7.42071e-006 1.52146e-006 5.88855e-007 3.18055e-015 -3.97569e-015 -0 -2.51683e-007 9.38865e-007 -1.07926e-007 -8.82781e-032 1.59028e-015 3.18055e-015 -7.42071e-006 1.52146e-006 5.88855e-007 3.18055e-015 -3.97569e-015 -0 -2.51683e-007 9.38865e-007 -1.07926e-007 -7.42071e-006 1.52146e-006 5.88855e-007 3.18055e-015 -3.97569e-015 -0 -2.51683e-007 9.38865e-007 -1.07926e-007 0.970662 -13.3318 9.2764 39.2923 -14.9479 60.1871 7.38978 -12.2758 -11.4119 32.7541 22.3017 9.31343 9.54166e-015 -7.95139e-015 3.18055e-015 3.18055e-015 -1.43125e-014 6.36111e-015 4.86046e-007 5.30626e-007 -4.59285e-007 -0 0 3.18055e-015 3.08973e-030 -1.11319e-014 1.59028e-014 6.36111e-015 -4.77083e-015 -0 4.86046e-007 5.30626e-007 -4.59285e-007 3.08973e-030 -1.11319e-014 1.59028e-014 6.36111e-015 -4.77083e-015 -0 4.86046e-007 5.30626e-007 -4.59285e-007 -0 0 3.18055e-015 3.08973e-030 -1.11319e-014 1.59028e-014 6.36111e-015 -4.77083e-015 -0 4.86046e-007 5.30626e-007 -4.59285e-007 3.08973e-030 -1.11319e-014 1.59028e-014 6.36111e-015 -4.77083e-015 -0 4.86046e-007 5.30626e-007 -4.59285e-007 104.527 -54.4555 120.521 161.172 75.6378 -159.261 4.98554 -5.21598 8.27595 -103.594 -50.1758 -117.152 -162.939 71.6959 160.599 -2.18939 -8.22677 -3.43557 
0.229009 82.8384 6.5698 -2.87471 39.1454 -177.678 -0.416994 14.4635 -0.590899 -0.709684 28.9304 -1.12563 -0.709684 28.9304 -1.12563 -1.18899e-005 -28.7035 -7.09763e-006 0.320072 -0.568275 0.00858158 -28.2092 -20.5004 8.97348 -43.4155 21.9703 -17.0274 -12.3472 26.7068 -67.984 21.4255 -6.60038 -2.24208 4.77083e-015 -5.56597e-015 3.18055e-015 1.59028e-015 -7.95139e-015 -3.18055e-015 3.18055e-015 -7.15625e-015 -0 1.59028e-015 7.95139e-016 3.18055e-015 2.20695e-031 -3.97569e-015 3.18055e-015 -4.8553e-031 -8.74653e-015 -3.18055e-015 3.18055e-015 -7.15625e-015 -0 2.20695e-031 -3.97569e-015 3.18055e-015 -4.8553e-031 -8.74653e-015 -3.18055e-015 3.18055e-015 -7.15625e-015 -0 1.59028e-015 7.95139e-016 3.18055e-015 2.20695e-031 -3.97569e-015 3.18055e-015 -4.8553e-031 -8.74653e-015 -3.18055e-015 3.18055e-015 -7.15625e-015 -0 2.20695e-031 -3.97569e-015 3.18055e-015 -4.8553e-031 -8.74653e-015 -3.18055e-015 3.18055e-015 -7.15625e-015 -0 0.846251 -13.6916 9.4214 39.2505 -15.036 60.1106 7.3898 -12.2758 -11.4119 32.615 22.2023 9.62864 4.41463e-007 5.34559e-007 -4.97109e-007 9.54166e-015 1.59028e-014 9.54166e-015 4.41463e-007 5.34559e-007 -4.97109e-007 6.36111e-015 3.18055e-015 -9.54166e-015 4.41463e-007 5.34559e-007 -4.97109e-007 1.41245e-030 1.27222e-014 -6.36111e-015 4.41463e-007 5.34559e-007 -4.97109e-007 4.41463e-007 5.34559e-007 -4.97109e-007 1.41245e-030 1.27222e-014 -6.36111e-015 4.41463e-007 5.34559e-007 -4.97109e-007 6.36111e-015 3.18055e-015 -9.54166e-015 4.41463e-007 5.34559e-007 -4.97109e-007 1.41245e-030 1.27222e-014 -6.36111e-015 4.41463e-007 5.34559e-007 -4.97109e-007 4.41463e-007 5.34559e-007 -4.97109e-007 1.41245e-030 1.27222e-014 -6.36111e-015 4.41463e-007 5.34559e-007 -4.97109e-007 103.555 -54.6093 119.55 160.725 75.9899 -158.799 5.02751 -5.14073 8.18169 -102.721 -50.2895 -116.372 -162.625 72.0553 160.242 -2.32415 -8.14538 -3.32867 
